<svg width="167" height="53" viewBox="0 0 167 53" fill="none" xmlns="http://www.w3.org/2000/svg">
<path d="M43.7598 28.7681L43.6307 28.3913C41.4778 15.8841 28.159 16.4638 25.4751 7.97101C27.5275 7.81159 29.1349 6.08696 29.1349 3.98551C29.1349 3.73913 29.1062 3.47826 29.0632 3.24638C29.0632 3.28986 29.0632 3.33333 29.0632 3.3913C29.0632 5.05797 27.7284 6.4058 26.0779 6.4058C24.4274 6.4058 23.0927 5.05797 23.0927 3.3913C23.0927 1.72464 24.4274 0.376812 26.0779 0.376812C26.5515 0.376812 26.9965 0.492754 27.384 0.681159C26.7525 0.246377 25.9918 0 25.1737 0C22.9779 0 21.2125 1.7971 21.2125 4C21.2125 6.18841 22.9492 7.97101 25.1163 8C22.1885 17.2319 6.67377 15.7246 6.67377 32.0435C6.67377 33.913 6.94646 35.7246 7.44879 37.4203L7.5349 37.8841C7.54925 37.8841 7.5636 37.8841 7.59231 37.8841C7.60666 37.913 7.60666 37.9275 7.60666 37.9565C10.0465 37.9275 12.5295 37.2464 14.7828 36.4493C14.7684 36.4203 14.7684 36.4058 14.7541 36.3768C21.5713 34.029 28.8335 29.6957 36.268 28.5942C36.2823 28.6232 36.2967 28.6667 36.2967 28.6957C38.2055 28.4058 40.1 28.3043 41.9658 28.4783C42.5686 28.5362 43.157 28.6377 43.7598 28.7681Z" fill="url(#paint0_linear_89_82)"/>
<path d="M26.2932 2.82609L25.8052 1.44928L25.3316 2.82609L23.8677 2.86957L25.0302 3.76812L24.614 5.17392L25.8052 4.33334L27.0108 5.17392L26.5946 3.76812L27.7571 2.86957L26.2932 2.82609Z" fill="url(#paint1_linear_89_82)"/>
<path fill-rule="evenodd" clip-rule="evenodd" d="M32.1776 15.0724C36.9138 18.029 42.4538 20.8261 43.6737 28.6811C42.3103 28.4493 40.9468 28.3623 39.569 28.3913C39.7843 23.7536 37.4449 18.6377 32.1776 15.0724Z" fill="url(#paint2_linear_89_82)"/>
<path fill-rule="evenodd" clip-rule="evenodd" d="M7.59232 37.9275C10.0322 37.8986 12.5151 37.2174 14.7684 36.4203C8.94142 31.2754 9.63033 20.9855 18.4426 15.058C13.0749 18.4058 6.65942 21.5362 6.65942 32.029C6.65942 34.087 6.98952 36.0725 7.59232 37.9275Z" fill="url(#paint3_linear_89_82)"/>
<path fill-rule="evenodd" clip-rule="evenodd" d="M52.0697 35.7246C33.4837 21.3189 14.6679 48.8116 0 38.7246C16.4907 58.5652 35.005 31.5507 52.0697 35.7246Z" fill="url(#paint4_linear_89_82)"/>
<path fill-rule="evenodd" clip-rule="evenodd" d="M25.2886 53C21.0547 53 17.1365 51.5652 14.0078 49.1594C20.2079 49.1449 26.3793 46.1884 31.8762 43.6087C35.292 42 39.2963 40.0579 43.2862 39.0435C41.1764 47.0724 33.9142 53 25.2886 53Z" fill="url(#paint5_linear_89_82)"/>
<path fill-rule="evenodd" clip-rule="evenodd" d="M14.0078 49.1594C31.5892 54.9275 43.2862 39.0435 43.2862 39.0435C41.1764 47.0724 33.9142 53 25.2886 53C21.0547 53 17.1365 51.5652 14.0078 49.1594Z" fill="url(#paint6_linear_89_82)"/>
<path fill-rule="evenodd" clip-rule="evenodd" d="M52.0697 35.7246C35.8948 25.7536 17.3805 53.3189 0 38.7246C14.6679 48.8116 33.4693 21.3189 52.0697 35.7246Z" fill="url(#paint7_linear_89_82)"/>
<path fill-rule="evenodd" clip-rule="evenodd" d="M60.9584 18.8278C61.3066 18.8278 61.6838 18.9262 62.0899 19.1223C61.3938 19.5545 61.0454 19.9375 61.0454 20.2712C61.0454 20.6054 61.2241 20.9094 61.5821 21.1842C61.9399 21.4594 62.2831 21.5967 62.6122 21.5967C62.9023 21.6555 63.4921 21.626 64.382 21.5082C65.4265 21.3905 66.0744 21.3315 66.3258 21.3315C68.1827 21.3315 69.4494 21.5574 70.1266 22.0089C71.4416 22.8534 72.0895 23.9925 72.0706 25.4258H74.2466L76.2774 27.4875H67.3704C67.4088 27.5861 67.4669 27.6937 67.5443 27.8115C67.7374 27.9882 68.1727 28.165 68.8498 28.3417C69.7205 28.5774 70.4603 29.1619 71.0695 30.0943C71.6788 31.0272 71.9835 31.9748 71.9835 32.9368C71.9835 33.958 71.6209 34.8614 70.8955 35.6465C70.1702 36.4321 69.1786 37.0309 67.9215 37.4432C68.2699 37.5221 68.9176 37.9048 69.8655 38.5921C70.6777 39.1617 71.2773 39.633 71.6641 40.0058L73.9273 42.156L74.6816 45.3959C71.3546 41.5384 67.4184 39.0582 62.8732 37.9554L60.6393 33.2018C62.3802 34.3409 63.9947 34.9102 65.4844 34.9102C67.2638 34.9102 68.5788 34.2915 69.4302 33.0545C69.6043 32.7995 69.6333 32.3771 69.5173 31.7879C69.3236 30.8651 68.7725 30.4034 67.8636 30.4034C67.7476 30.4034 67.6314 30.4233 67.5154 30.4624C67.4379 31.1694 67.0122 31.8666 66.2389 32.5538C65.7553 32.986 65.1749 33.2018 64.498 33.2018C63.9563 33.2018 63.4873 33.0397 63.0908 32.7157C62.6941 32.3917 62.496 31.9646 62.496 31.4344C62.496 30.9631 62.6412 30.4874 62.9313 30.0058C63.2214 29.525 63.5596 29.1864 63.9468 28.9897C64.1207 28.8327 64.4881 28.6464 65.0493 28.43C65.2234 28.3909 65.4359 28.3027 65.6875 28.165C65.5714 27.9882 65.3488 27.7627 65.0202 27.4875H60.5524L58.5214 25.4258H68.7629C69.0337 25.4065 69.3333 25.3668 69.6624 25.3078C69.7786 25.2688 69.9329 25.1752 70.1266 25.0282C70.3197 24.8807 70.4167 24.7583 70.4167 24.6599C70.4167 24.4243 70.1166 24.2474 69.5173 24.1296C69.0141 24.0119 68.608 23.9728 68.2987 24.0119C67.6024 24.0119 66.6544 24.0611 65.4556 24.1591C64.9718 24.1988 64.6236 24.2181 64.411 24.2181C62.9023 24.2181 61.6838 23.7961 60.7553 22.9514C60.0205 22.2841 59.6529 21.5082 59.6529 20.6245C59.6529 20.0355 59.8269 19.525 60.1751 19.0928C60.3106 18.9163 60.5716 18.8278 60.9584 18.8278Z" fill="white"/>
<path fill-rule="evenodd" clip-rule="evenodd" d="M85.1554 27.4876H79.7009C80.5904 28.234 81.0355 29.2059 81.0355 30.4035V30.433C81.8863 29.844 82.4182 29.5495 82.6312 29.5495C83.2885 29.5495 84.1299 30.2172 85.1554 31.5522V27.4876ZM87.1572 27.4876V43.069L85.1554 40.7191V33.8752C85.0775 33.5622 84.8493 33.2436 84.4712 32.9206C84.0933 32.5976 83.7392 32.4359 83.4095 32.4359C82.944 32.4359 82.5173 32.7304 82.1297 33.3196C80.5194 35.7744 79.4623 37.0507 78.9584 37.1487C78.8223 37.1684 78.6286 37.1782 78.3766 37.1782C77.7555 37.1782 77.3196 37.0802 77.0674 36.8835C76.5434 36.7267 75.7484 35.6369 74.6817 33.6141L76.2193 32.0824C76.2774 32.6523 76.3934 33.1235 76.5673 33.4963C76.8766 34.1053 77.1476 34.4093 77.3798 34.4093C77.6118 34.4093 78.3951 33.4963 79.7299 31.6702C79.5558 29.8047 78.7723 28.8423 77.3798 28.7835C76.4705 28.7445 75.8901 28.6855 75.6389 28.6068C75.194 28.45 74.7586 28.067 74.3333 27.4581L73.9563 27.2518L72.0992 25.4257H89.072L91.1029 27.4876H87.1572Z" fill="white"/>
<path fill-rule="evenodd" clip-rule="evenodd" d="M102.011 27.4581V42.9808L99.9804 40.9778V32.7011C99.9804 32.3281 99.8069 31.9647 99.4597 31.6112C99.1125 31.2577 98.7508 31.081 98.3736 31.081C98.0762 31.081 97.8382 31.2384 97.6595 31.5522C97.5239 31.8276 97.5239 32.4261 97.6595 33.3491L96.2089 33.9086C96.383 33.4962 96.383 33.1429 96.2089 32.8484C95.8217 32.2592 95.5606 31.9158 95.4256 31.8174C94.9614 31.3268 94.342 31.081 93.5687 31.081C92.9495 31.081 92.4032 31.3018 91.9296 31.7438C91.4552 32.1855 91.2188 32.7208 91.2188 33.3491C91.2188 34.1545 91.5567 34.6943 92.2341 34.9691C92.1567 34.7531 92.1179 34.5271 92.1179 34.2916C92.1179 33.7614 92.3066 33.3149 92.6838 32.9513C93.061 32.5882 93.52 32.4064 94.0619 32.4064C94.8933 32.3871 95.4929 32.8681 95.8607 33.8498C96.1699 34.6353 96.2474 35.2048 96.0927 35.5583C95.6672 36.6185 94.8548 37.1487 93.6556 37.1487C92.6113 37.1487 91.6922 36.8593 90.8994 36.2797C90.1061 35.7008 89.6035 34.9005 89.3909 33.8791C89.3132 33.4866 89.2747 33.0839 89.2747 32.6716C89.2747 31.5919 89.5744 30.6294 90.1742 29.785C90.8315 28.8232 91.6729 28.332 92.6982 28.3123C93.8007 28.293 94.7677 28.7052 95.5997 29.5493L95.8028 29.8145C95.996 29.461 96.2814 29.1323 96.6587 28.8277C97.0359 28.5236 97.3885 28.3812 97.7176 28.4006C98.3365 28.4402 98.8491 28.6462 99.2552 29.0193C99.4293 29.2548 99.5936 29.4712 99.7484 29.6672C99.8256 29.7459 99.9031 29.8342 99.9804 29.9323V27.4581H88.8975L86.8086 25.3962H103.926L106.015 27.4581H102.011Z" fill="white"/>
<path fill-rule="evenodd" clip-rule="evenodd" d="M106.131 26.9868C106.015 25.6125 105.957 24.1002 105.957 22.4507L107.078 23.3934C107.116 23.6877 107.25 24.218 107.48 24.9839C107.557 25.1017 107.662 25.2489 107.796 25.4256H109.951L111.963 27.4875H107.93V43.4225L105.957 41.2471V30.1039C105.957 29.5163 105.841 29.0556 105.609 28.7224C105.048 27.8994 104.352 27.4875 103.52 27.4875H103.056L101.025 25.4836C102.321 25.3469 103.307 25.3276 103.984 25.4256C104.913 25.5633 105.628 26.0838 106.131 26.9868Z" fill="white"/>
<path fill-rule="evenodd" clip-rule="evenodd" d="M114.951 28.165C114.719 27.8115 114.409 27.5862 114.023 27.4876H109.758L107.64 25.4258H122.756L124.758 27.4876H116.518L116.576 27.6643C116.653 27.7822 116.769 27.9588 116.924 28.1945C117.253 28.1945 117.669 28.3027 118.172 28.5185C119.757 29.1472 120.734 30.2959 121.102 31.9646C121.16 32.24 121.189 32.5146 121.189 32.7894C121.189 34.38 120.415 35.617 118.868 36.5007C118.655 36.6185 118.133 36.8837 117.301 37.2959C117.359 37.3157 117.427 37.3452 117.504 37.3844C117.833 37.5612 118.191 37.7576 118.578 37.9734C119.467 38.5236 120.328 39.2106 121.16 40.0353C121.315 40.1728 122.079 40.988 123.452 42.48L124.381 45.8379C123.607 44.9344 123.104 44.3454 122.872 44.0707C121.711 42.7747 119.98 41.4491 117.679 40.0941C115.918 39.0339 114.042 38.3269 112.05 37.9734L110.019 32.9368C111.818 34.1738 113.481 34.7923 115.009 34.7923C116.498 34.7923 117.814 34.2328 118.955 33.1134C119.226 32.8388 119.361 32.5441 119.361 32.2297C119.361 31.8961 119.226 31.533 118.955 31.1399C118.587 30.6099 117.949 30.3447 117.04 30.3447C116.904 30.3447 116.789 30.3548 116.692 30.3742C116.614 31.1009 116.17 31.8275 115.357 32.5538C114.854 33.0058 114.293 33.2313 113.674 33.2313C112.553 33.2313 111.885 32.6913 111.673 31.6112C111.576 31.0419 111.798 30.3939 112.34 29.6672C112.611 29.2944 113.007 28.9802 113.529 28.7247C113.588 28.7054 114.061 28.5185 114.951 28.165Z" fill="white"/>
<path fill-rule="evenodd" clip-rule="evenodd" d="M138.829 30.7865C137.668 31.2578 136.701 31.729 135.927 32.2002C135.908 32.2202 135.434 32.5639 134.506 33.2314C136.343 34.1149 137.784 35.3718 138.829 37.0015V30.7865ZM144.602 33.6437C144.525 32.9957 144.186 32.3674 143.587 31.7585C142.794 30.9535 141.875 30.561 140.831 30.5803V42.7746L139.757 41.6848C139.448 40.7422 139.244 40.1633 139.148 39.9469C138.935 39.5151 138.577 39.0044 138.074 38.4152C137.417 37.6302 136.856 37.0802 136.392 36.7658C135.308 36.0985 134.128 35.6958 132.852 35.5583L130.589 32.7305C133.047 30.6494 135.794 29.1177 138.829 28.1356V27.4876H130.172L128.123 25.4257H147.01L149.012 27.4876H140.831V27.9589C142.036 27.9589 143.173 28.4795 144.243 29.52C145.235 30.502 145.867 31.6112 146.139 32.8484C146.236 33.3197 146.285 33.7518 146.285 34.1444C146.285 34.9691 146.053 35.686 145.589 36.2946C145.086 36.9625 144.438 37.296 143.645 37.296C143.084 37.296 142.581 37.0898 142.136 36.6775C141.691 36.2651 141.469 35.7745 141.469 35.2048C141.469 34.5566 141.788 33.9676 142.426 33.4374C142.794 33.3197 143.123 33.2607 143.413 33.2607C143.877 33.2607 144.273 33.3886 144.602 33.6437Z" fill="white"/>
<path fill-rule="evenodd" clip-rule="evenodd" d="M159.457 22.4802C158.025 21.3807 156.391 20.8308 154.554 20.8308C153.548 20.8308 152.446 21.2335 151.246 22.0385C150.975 22.3137 150.656 22.7062 150.289 23.2167C149.863 23.8057 149.66 24.1887 149.68 24.3654L150.173 25.4258H152.784L154.815 27.4876H150.782V42.804L148.693 40.8011V27.4876H146.735L144.718 25.4258H148.49C148.239 25.1708 147.992 24.9007 147.75 24.6158C147.508 24.3314 147.388 24.0119 147.388 23.6584C147.407 23.0694 147.523 22.6082 147.736 22.274C148.239 21.43 148.606 20.8896 148.838 20.6541C150.134 19.2991 151.595 18.6216 153.219 18.6216C155.134 18.6216 157.175 19.3093 159.341 20.6835C160.037 21.0958 160.937 21.8815 162.039 23.04L162.677 24.9544L159.457 22.4802Z" fill="white"/>
<path fill-rule="evenodd" clip-rule="evenodd" d="M161.168 30.757C159.563 31.3267 157.977 32.1709 156.41 33.2902C158.499 34.2524 160.085 35.6073 161.168 37.355V30.757ZM157.397 41.2134C156.874 41.2134 156.434 41.022 156.077 40.639C155.719 40.2563 155.54 39.8194 155.54 39.3284C155.54 38.8572 155.704 38.4498 156.033 38.1059C156.362 37.7628 156.758 37.5905 157.223 37.5905C157.629 37.5905 158.006 37.7282 158.354 38.003C158.702 38.2782 158.924 38.6215 159.021 39.0337C159.137 39.564 159.031 40.0602 158.702 40.5213C158.373 40.983 157.938 41.2134 157.397 41.2134ZM163.199 27.4876V42.8041L162.126 41.7731C161.178 40.0057 160.656 39.0537 160.559 38.916C159.959 37.9932 159.186 37.2472 158.238 36.6773C157.097 35.9903 155.878 35.6073 154.582 35.5288L152.436 32.5537C155.433 30.394 158.344 28.8623 161.168 27.9589V27.4876H152.464L150.405 25.4257H164.94L167 27.4876H163.199Z" fill="white"/>
<defs>
<linearGradient id="paint0_linear_89_82" x1="38.4306" y1="31.5536" x2="38.4306" y2="4.48281" gradientUnits="userSpaceOnUse">
<stop stop-color="#F15A3A"/>
<stop offset="0.5077" stop-color="#F47A35"/>
<stop offset="1" stop-color="#FFC65D"/>
</linearGradient>
<linearGradient id="paint1_linear_89_82" x1="39.9449" y1="31.5536" x2="39.9449" y2="4.48282" gradientUnits="userSpaceOnUse">
<stop stop-color="#F15A3A"/>
<stop offset="0.5077" stop-color="#F47A35"/>
<stop offset="1" stop-color="#F7AA1B"/>
</linearGradient>
<linearGradient id="paint2_linear_89_82" x1="46.1327" y1="25.736" x2="39.7263" y2="15.5552" gradientUnits="userSpaceOnUse">
<stop stop-color="#CC306B"/>
<stop offset="0.5077" stop-color="#F16037"/>
<stop offset="1" stop-color="#F78F29"/>
</linearGradient>
<linearGradient id="paint3_linear_89_82" x1="18.6476" y1="35.7481" x2="18.6706" y2="18.9253" gradientUnits="userSpaceOnUse">
<stop stop-color="#B21F6C"/>
<stop offset="0.5077" stop-color="#F16037"/>
<stop offset="1" stop-color="#F78F29"/>
</linearGradient>
<linearGradient id="paint4_linear_89_82" x1="25.814" y1="52.312" x2="33.0909" y2="29.5278" gradientUnits="userSpaceOnUse">
<stop stop-color="#DB2E92"/>
<stop offset="0.4843" stop-color="#C83192"/>
<stop offset="1" stop-color="#E5A26C"/>
</linearGradient>
<linearGradient id="paint5_linear_89_82" x1="20.131" y1="52.9972" x2="39.5731" y2="35.9547" gradientUnits="userSpaceOnUse">
<stop stop-color="#6F2AC7"/>
<stop offset="0.4843" stop-color="#5D3FDD"/>
<stop offset="1" stop-color="#1B79FF"/>
</linearGradient>
<linearGradient id="paint6_linear_89_82" x1="14.2101" y1="52.9533" x2="43.2967" y2="52.9533" gradientUnits="userSpaceOnUse">
<stop stop-color="#282DB5"/>
<stop offset="0.511664" stop-color="#2E62D8"/>
<stop offset="1" stop-color="#3387F2"/>
</linearGradient>
<linearGradient id="paint7_linear_89_82" x1="8.14803" y1="42.6867" x2="37.4743" y2="17.9354" gradientUnits="userSpaceOnUse">
<stop stop-color="#9B239C"/>
<stop offset="0.4843" stop-color="#88219D"/>
<stop offset="1" stop-color="#C26E81"/>
</linearGradient>
</defs>
</svg>
