<svg width="159" height="60" viewBox="0 0 159 60" fill="none" xmlns="http://www.w3.org/2000/svg">
<g filter="url(#filter0_d_89_264)">
<path d="M46.8645 28.2253L46.738 27.8556C44.6292 15.5844 31.5829 16.1531 28.9539 7.82062C30.9643 7.66421 32.5389 5.97211 32.5389 3.91031C32.5389 3.66858 32.5108 3.41263 32.4686 3.18512C32.4686 3.22778 32.4686 3.27044 32.4686 3.32732C32.4686 4.96254 31.1611 6.28493 29.5444 6.28493C27.9277 6.28493 26.6202 4.96254 26.6202 3.32732C26.6202 1.6921 27.9277 0.369702 29.5444 0.369702C30.0083 0.369702 30.4441 0.483456 30.8237 0.668307C30.2052 0.241728 29.46 0 28.6587 0C26.5078 0 24.7785 1.76319 24.7785 3.92453C24.7785 6.07164 26.4796 7.82062 28.6025 7.84906C25.7345 16.9068 10.5372 15.4279 10.5372 31.4389C10.5372 33.2732 10.8043 35.0506 11.2964 36.7142L11.3807 37.1693C11.3948 37.1693 11.4089 37.1693 11.437 37.1693C11.451 37.1977 11.451 37.2119 11.451 37.2404C13.841 37.2119 16.2731 36.5436 18.4803 35.7616C18.4663 35.7331 18.4663 35.7189 18.4522 35.6905C25.13 33.3869 32.2436 29.1354 39.526 28.0547C39.54 28.0831 39.5541 28.1258 39.5541 28.1542C41.4239 27.8698 43.2796 27.7703 45.1072 27.9409C45.6977 27.9978 46.2741 28.0973 46.8645 28.2253Z" fill="url(#paint0_linear_89_264)"/>
<path d="M29.7553 2.77271L29.2773 1.42188L28.8134 2.77271L27.3794 2.81537L28.5181 3.69696L28.1104 5.07624L29.2773 4.25152L30.4582 5.07624L30.0505 3.69696L31.1893 2.81537L29.7553 2.77271Z" fill="url(#paint1_linear_89_264)"/>
<path fill-rule="evenodd" clip-rule="evenodd" d="M35.5193 14.7881C40.1586 17.6888 45.5852 20.4332 46.7802 28.14C45.4446 27.9125 44.1091 27.8272 42.7594 27.8556C42.9703 23.3055 40.6788 18.286 35.5193 14.7881Z" fill="url(#paint2_linear_89_264)"/>
<path fill-rule="evenodd" clip-rule="evenodd" d="M11.437 37.2119C13.827 37.1834 16.2591 36.5151 18.4663 35.7331C12.7585 30.6852 13.4333 20.5895 22.0653 14.7738C16.8074 18.0585 10.5232 21.1298 10.5232 31.4246C10.5232 33.4438 10.8465 35.3918 11.437 37.2119Z" fill="url(#paint3_linear_89_264)"/>
<path fill-rule="evenodd" clip-rule="evenodd" d="M55.0044 35.0506C36.7986 20.9166 18.3678 47.8906 4 37.994C20.1533 57.4602 38.2888 30.9555 55.0044 35.0506Z" fill="url(#paint4_linear_89_264)"/>
<path fill-rule="evenodd" clip-rule="evenodd" d="M28.7712 52C24.6239 52 20.7859 50.5922 17.7211 48.2318C23.7944 48.2176 29.8396 45.3169 35.224 42.7858C38.57 41.2075 42.4923 39.3021 46.4006 38.3068C44.334 46.1843 37.2203 52 28.7712 52Z" fill="url(#paint5_linear_89_264)"/>
<path fill-rule="evenodd" clip-rule="evenodd" d="M17.7211 48.2318C34.9429 53.8911 46.4006 38.3068 46.4006 38.3068C44.334 46.1843 37.2203 52 28.7712 52C24.6239 52 20.7859 50.5922 17.7211 48.2318Z" fill="url(#paint6_linear_89_264)"/>
<path fill-rule="evenodd" clip-rule="evenodd" d="M55.0044 35.0506C39.1604 25.2677 21.0249 52.3128 4 37.994C18.3678 47.8906 36.7846 20.9166 55.0044 35.0506Z" fill="url(#paint7_linear_89_264)"/>
<g clip-path="url(#clip0_89_264)">
<path d="M62.7725 40V19.6996H69.0188C70.8034 19.6996 72.3975 20.104 73.8011 20.9126C75.2139 21.712 76.3154 22.8553 77.1055 24.3425C77.8955 25.8204 78.2906 27.5028 78.2906 29.3897V30.3239C78.2906 32.2108 77.9002 33.8885 77.1194 35.3571C76.3479 36.8257 75.2557 37.9644 73.8429 38.7731C72.43 39.5817 70.8359 39.9907 69.0606 40H62.7725ZM66.9553 23.0877V36.6398H68.9769C70.6129 36.6398 71.8631 36.1054 72.7275 35.0364C73.5919 33.9675 74.0334 32.4385 74.052 30.4493V29.3758C74.052 27.3123 73.6245 25.7507 72.7693 24.6911C71.9142 23.6221 70.664 23.0877 69.0188 23.0877H66.9553ZM80.4517 32.3176C80.4517 30.8211 80.7398 29.4873 81.3161 28.3161C81.8924 27.1449 82.7197 26.2387 83.7979 25.5973C84.8854 24.956 86.1449 24.6353 87.5763 24.6353C89.6119 24.6353 91.2711 25.2581 92.5538 26.5036C93.8458 27.7491 94.5662 29.4408 94.7149 31.5787L94.7428 32.6104C94.7428 34.9249 94.0968 36.7839 92.8048 38.1875C91.5128 39.5817 89.7793 40.2789 87.6042 40.2789C85.4292 40.2789 83.691 39.5817 82.3897 38.1875C81.0977 36.7932 80.4517 34.897 80.4517 32.4989V32.3176ZM84.4811 32.6104C84.4811 34.0419 84.7506 35.1387 85.2897 35.9009C85.8289 36.6538 86.6003 37.0302 87.6042 37.0302C88.5802 37.0302 89.3424 36.6584 89.8908 35.9148C90.4392 35.1619 90.7134 33.9629 90.7134 32.3176C90.7134 30.9141 90.4392 29.8266 89.8908 29.0551C89.3424 28.2836 88.5709 27.8978 87.5763 27.8978C86.5911 27.8978 85.8289 28.2836 85.2897 29.0551C84.7506 29.8173 84.4811 31.0024 84.4811 32.6104Z" fill="black"/>
<path d="M100.38 40.3369H98.7066V25.2511H100.38V40.3369ZM98.4138 20.887C98.4138 20.571 98.5161 20.3061 98.7206 20.0923C98.9251 19.8692 99.2039 19.7577 99.5571 19.7577C99.9103 19.7577 100.189 19.8692 100.394 20.0923C100.607 20.3061 100.714 20.571 100.714 20.887C100.714 21.2031 100.607 21.468 100.394 21.6818C100.189 21.8955 99.9103 22.0024 99.5571 22.0024C99.2039 22.0024 98.9251 21.8955 98.7206 21.6818C98.5161 21.468 98.4138 21.2031 98.4138 20.887ZM113.96 36.5027C113.96 35.6754 113.625 35.0109 112.956 34.5089C112.296 34.007 111.297 33.6166 109.958 33.3377C108.62 33.0496 107.579 32.7243 106.835 32.3618C106.101 31.99 105.552 31.5392 105.19 31.0093C104.837 30.4795 104.66 29.8382 104.66 29.0853C104.66 27.8955 105.157 26.9149 106.152 26.1434C107.147 25.3626 108.42 24.9722 109.972 24.9722C111.655 24.9722 113.002 25.3905 114.016 26.227C115.038 27.0543 115.549 28.1372 115.549 29.4757H113.876C113.876 28.5926 113.504 27.8583 112.761 27.2727C112.026 26.6871 111.097 26.3943 109.972 26.3943C108.875 26.3943 107.992 26.6407 107.323 27.1333C106.663 27.6166 106.333 28.2487 106.333 29.0295C106.333 29.7824 106.607 30.368 107.156 30.7863C107.714 31.1952 108.722 31.5717 110.181 31.9156C111.65 32.2595 112.747 32.6267 113.472 33.0171C114.206 33.4075 114.75 33.8769 115.103 34.4253C115.456 34.9737 115.633 35.6383 115.633 36.4191C115.633 37.6925 115.117 38.7103 114.085 39.4725C113.063 40.2347 111.724 40.6158 110.07 40.6158C108.313 40.6158 106.886 40.1928 105.789 39.347C104.702 38.4918 104.158 37.4136 104.158 36.1123H105.831C105.896 37.0883 106.305 37.8505 107.058 38.3989C107.82 38.938 108.824 39.2076 110.07 39.2076C111.232 39.2076 112.171 38.952 112.886 38.4407C113.602 37.9295 113.96 37.2835 113.96 36.5027ZM121.266 40.3369H119.593V18.9211H121.266V40.3369ZM135.334 40.3369C135.166 39.8629 135.06 39.1611 135.013 38.2316C134.428 38.9938 133.679 39.584 132.768 40.0023C131.867 40.4113 130.909 40.6158 129.896 40.6158C128.446 40.6158 127.27 40.2114 126.369 39.4028C125.476 38.5941 125.03 37.5716 125.03 36.3354C125.03 34.8668 125.639 33.7049 126.857 32.8498C128.084 31.9946 129.789 31.567 131.974 31.567H134.999V29.8521C134.999 28.7739 134.665 27.928 133.995 27.3146C133.335 26.6918 132.369 26.3804 131.095 26.3804C129.933 26.3804 128.971 26.6778 128.209 27.2727C127.447 27.8676 127.066 28.5833 127.066 29.4199L125.393 29.4059C125.393 28.2069 125.95 27.1705 127.066 26.2967C128.181 25.4137 129.552 24.9722 131.179 24.9722C132.861 24.9722 134.186 25.3951 135.153 26.241C136.128 27.0775 136.63 28.2487 136.658 29.7545V36.8931C136.658 38.3524 136.812 39.4446 137.118 40.1696V40.3369H135.334ZM130.091 39.1379C131.207 39.1379 132.201 38.8683 133.075 38.3292C133.958 37.7901 134.599 37.0697 134.999 36.1681V32.8498H132.015C130.352 32.8683 129.05 33.1751 128.112 33.77C127.173 34.3556 126.703 35.1642 126.703 36.196C126.703 37.0418 127.015 37.7436 127.637 38.3013C128.27 38.859 129.087 39.1379 130.091 39.1379ZM142.779 27.8025C143.328 26.9009 144.029 26.2038 144.884 25.7112C145.74 25.2185 146.674 24.9722 147.687 24.9722C149.304 24.9722 150.508 25.4277 151.298 26.3386C152.088 27.2495 152.488 28.6159 152.497 30.4377V40.3369H150.838V30.4237C150.829 29.076 150.54 28.0721 149.973 27.4122C149.416 26.7522 148.519 26.4222 147.283 26.4222C146.251 26.4222 145.335 26.7476 144.536 27.3982C143.746 28.0396 143.16 28.9087 142.779 30.0055V40.3369H141.12V18.9211H142.779V27.8025Z" fill="black"/>
</g>
</g>
<defs>
<filter id="filter0_d_89_264" x="0" y="0" width="158.96" height="60" filterUnits="userSpaceOnUse" color-interpolation-filters="sRGB">
<feFlood flood-opacity="0" result="BackgroundImageFix"/>
<feColorMatrix in="SourceAlpha" type="matrix" values="0 0 0 0 0 0 0 0 0 0 0 0 0 0 0 0 0 0 127 0" result="hardAlpha"/>
<feOffset dy="4"/>
<feGaussianBlur stdDeviation="2"/>
<feComposite in2="hardAlpha" operator="out"/>
<feColorMatrix type="matrix" values="0 0 0 0 0 0 0 0 0 0 0 0 0 0 0 0 0 0 0.25 0"/>
<feBlend mode="normal" in2="BackgroundImageFix" result="effect1_dropShadow_89_264"/>
<feBlend mode="normal" in="SourceGraphic" in2="effect1_dropShadow_89_264" result="shape"/>
</filter>
<linearGradient id="paint0_linear_89_264" x1="41.6443" y1="30.9583" x2="41.6443" y2="4.39823" gradientUnits="userSpaceOnUse">
<stop stop-color="#F15A3A"/>
<stop offset="0.5077" stop-color="#F47A35"/>
<stop offset="1" stop-color="#FFC65D"/>
</linearGradient>
<linearGradient id="paint1_linear_89_264" x1="43.1277" y1="30.9582" x2="43.1277" y2="4.39818" gradientUnits="userSpaceOnUse">
<stop stop-color="#F15A3A"/>
<stop offset="0.5077" stop-color="#F47A35"/>
<stop offset="1" stop-color="#F7AA1B"/>
</linearGradient>
<linearGradient id="paint2_linear_89_264" x1="49.1889" y1="25.2504" x2="42.8989" y2="15.2709" gradientUnits="userSpaceOnUse">
<stop stop-color="#CC306B"/>
<stop offset="0.5077" stop-color="#F16037"/>
<stop offset="1" stop-color="#F78F29"/>
</linearGradient>
<linearGradient id="paint3_linear_89_264" x1="22.2661" y1="35.0736" x2="22.2887" y2="18.5682" gradientUnits="userSpaceOnUse">
<stop stop-color="#B21F6C"/>
<stop offset="0.5077" stop-color="#F16037"/>
<stop offset="1" stop-color="#F78F29"/>
</linearGradient>
<linearGradient id="paint4_linear_89_264" x1="29.2859" y1="51.325" x2="36.4349" y2="28.9774" gradientUnits="userSpaceOnUse">
<stop stop-color="#DB2E92"/>
<stop offset="0.4843" stop-color="#C83192"/>
<stop offset="1" stop-color="#E5A26C"/>
</linearGradient>
<linearGradient id="paint5_linear_89_264" x1="23.7191" y1="51.9972" x2="42.7903" y2="35.307" gradientUnits="userSpaceOnUse">
<stop stop-color="#6F2AC7"/>
<stop offset="0.4843" stop-color="#5D3FDD"/>
<stop offset="1" stop-color="#1B79FF"/>
</linearGradient>
<linearGradient id="paint6_linear_89_264" x1="17.9193" y1="51.9542" x2="46.4108" y2="51.9542" gradientUnits="userSpaceOnUse">
<stop stop-color="#282DB5"/>
<stop offset="0.511664" stop-color="#2E62D8"/>
<stop offset="1" stop-color="#3387F2"/>
</linearGradient>
<linearGradient id="paint7_linear_89_264" x1="11.9813" y1="41.8813" x2="40.7464" y2="17.643" gradientUnits="userSpaceOnUse">
<stop stop-color="#9B239C"/>
<stop offset="0.4843" stop-color="#88219D"/>
<stop offset="1" stop-color="#C26E81"/>
</linearGradient>
<clipPath id="clip0_89_264">
<rect width="93.9556" height="33" fill="white" transform="translate(61.0049 14.3369)"/>
</clipPath>
</defs>
</svg>
